<?xml version="1.0" standalone="no"?>
<!DOCTYPE svg PUBLIC "-//W3C//DTD SVG 20010904//EN"
 "http://www.w3.org/TR/2001/REC-SVG-20010904/DTD/svg10.dtd">
<svg version="1.0" xmlns="http://www.w3.org/2000/svg"
 width="449.000000pt" height="256.000000pt" viewBox="0 0 449.000000 256.000000"
 preserveAspectRatio="xMidYMid meet">

<g transform="translate(0.000000,256.000000) scale(0.100000,-0.100000)"
fill="#000000" stroke="none">
<path d="M1636 2511 c-3 -4 -9 -376 -12 -825 -7 -780 -6 -817 11 -836 18 -19
30 -20 440 -20 314 0 424 3 433 12 9 9 12 87 12 290 0 264 -1 278 -19 288 -49
25 -57 -3 -52 -180 0 -36 -2 -69 -6 -75 -5 -6 -138 -9 -376 -7 l-367 3 2 542
3 542 365 0 365 0 10 -70 c11 -73 28 -92 60 -65 20 16 22 379 3 398 -14 14
-863 18 -872 3z m809 -126 l0 -60 -370 0 -370 0 -3 49 c-2 27 -1 55 2 62 5 12
67 14 373 12 l368 -3 0 -60z m-5 -1390 l0 -84 -167 -3 c-93 -2 -258 -1 -368 2
l-200 5 -3 69 c-2 38 -1 75 2 83 4 10 73 13 371 13 l365 0 0 -85z"/>
<path d="M1922 2384 c3 -14 23 -16 152 -15 82 0 151 2 153 5 3 3 2 9 -2 15 -4
7 -61 11 -156 11 -133 0 -150 -2 -147 -16z"/>
<path d="M2024 1035 c-11 -17 -14 -35 -10 -57 8 -43 23 -58 56 -58 31 0 70 39
70 70 0 10 -9 29 -21 44 -27 35 -72 35 -95 1z m80 -32 c9 -23 -17 -47 -43 -38
-20 6 -28 34 -14 48 13 13 51 7 57 -10z"/>
<path d="M2962 2193 c-19 -17 -43 -99 -159 -538 l-30 -110 -360 -3 -361 -2
-16 47 c-39 122 -96 316 -96 327 0 17 5 18 441 66 200 22 371 43 381 46 22 7
31 33 16 51 -16 20 -61 17 -538 -37 -255 -29 -380 -46 -389 -56 -13 -12 -11
-26 13 -106 56 -190 118 -377 131 -395 13 -17 36 -18 417 -14 227 1 408 7 414
12 7 5 17 31 23 57 7 26 46 169 88 318 l77 272 49 5 c72 9 102 43 58 67 -33
17 -136 12 -159 -7z"/>
<path d="M2182 1432 c-34 -3 -45 -8 -54 -28 -15 -32 -4 -40 26 -20 34 22 68
20 95 -5 28 -26 50 -12 30 19 -17 28 -46 38 -97 34z"/>
<path d="M2655 1428 c-33 -17 -45 -40 -45 -81 0 -52 15 -76 57 -93 98 -42 180
81 104 157 -32 31 -78 38 -116 17z m90 -43 c30 -29 31 -45 4 -79 -25 -31 -61
-34 -89 -6 -28 28 -25 64 6 89 34 27 50 26 79 -4z"/>
<path d="M2247 1304 c-32 -28 -55 -30 -83 -9 -24 18 -44 19 -44 2 0 -49 103
-65 145 -22 43 42 27 68 -18 29z"/>
<path d="M134 444 c-17 -8 -36 -26 -43 -40 -17 -38 -14 -239 4 -273 34 -67
189 -68 225 -2 5 11 10 38 10 61 0 41 -1 41 -32 38 -27 -2 -34 -8 -36 -28 -6
-46 -64 -67 -96 -34 -23 22 -23 186 0 208 28 29 80 18 95 -20 6 -18 16 -24 39
-24 27 0 30 3 30 31 0 43 -16 69 -55 85 -44 18 -102 18 -141 -2z m83 -20 c-3
-3 -12 -4 -19 -1 -8 3 -5 6 6 6 11 1 17 -2 13 -5z"/>
<path d="M560 443 c-49 -25 -63 -71 -58 -201 3 -95 5 -104 30 -128 31 -32 106
-43 162 -24 58 19 68 50 64 191 -3 112 -4 120 -29 144 -35 35 -119 44 -169 18z
m20 -27 c0 -2 -8 -10 -17 -17 -16 -13 -17 -12 -4 4 13 16 21 21 21 13z m94
-48 c11 -16 16 -46 16 -105 0 -91 -11 -113 -59 -113 -46 0 -56 23 -56 122 0
77 3 92 19 104 29 21 63 17 80 -8z m53 -140 c-2 -24 -4 -5 -4 42 0 47 2 66 4
43 2 -24 2 -62 0 -85z m-26 -91 l-24 -22 19 27 c10 14 21 24 23 22 3 -3 -6
-15 -18 -27z m-130 -4 c13 -16 12 -17 -3 -4 -17 13 -22 21 -14 21 2 0 10 -8
17 -17z"/>
<path d="M955 447 c-3 -7 -4 -91 -3 -187 l3 -175 30 0 30 0 0 87 c0 51 4 88
10 89 6 0 19 -37 31 -82 22 -88 43 -115 67 -89 13 14 20 34 47 138 6 23 15 42
20 42 5 0 11 -42 12 -92 3 -80 5 -93 21 -96 43 -9 48 11 45 190 -3 182 -6 191
-58 186 -22 -3 -28 -13 -53 -93 -40 -127 -47 -143 -57 -125 -4 8 -20 58 -36
110 -15 52 -29 97 -30 99 -9 11 -75 10 -79 -2z m37 -89 c-5 -132 -9 -145 -10
-35 -1 59 1 107 6 107 4 0 6 -33 4 -72z m248 -95 c0 -82 -4 -133 -10 -133 -6
0 -10 56 -10 148 0 98 3 142 10 132 5 -8 10 -75 10 -147z m-120 -107 c0 -8 -4
-18 -10 -21 -5 -3 -10 -4 -10 -1 0 2 -3 11 -6 20 -4 11 -1 16 10 16 9 0 16 -6
16 -14z m-133 -28 c-3 -8 -6 -5 -6 6 -1 11 2 17 5 13 3 -3 4 -12 1 -19z"/>
<path d="M1444 446 c-2 -6 -3 -90 -2 -186 l3 -175 30 0 c29 0 30 2 33 48 3 41
6 47 25 47 12 0 39 5 60 11 46 12 67 52 67 127 0 63 -15 106 -43 120 -33 16
-168 22 -173 8z m63 -22 c-3 -3 -12 -4 -19 -1 -8 3 -5 6 6 6 11 1 17 -2 13 -5z
m76 -51 c10 -6 9 -85 -1 -101 -5 -7 -22 -14 -38 -15 -28 -2 -29 -1 -32 52 -4
72 1 83 35 75 16 -4 31 -9 36 -11z"/>
<path d="M1824 446 c-3 -7 -3 -90 -2 -186 l3 -175 30 0 c29 0 30 2 33 48 3 38
7 47 21 47 13 0 24 -14 36 -42 19 -48 30 -58 63 -58 26 0 28 17 6 64 -16 32
-16 36 6 80 18 38 21 59 18 112 -6 92 -27 110 -131 116 -54 4 -80 1 -83 -6z
m48 -223 c7 -9 7 -13 0 -13 -6 0 -13 -21 -15 -47 -2 -27 -3 22 -3 107 0 85 2
112 3 61 2 -52 9 -101 15 -108z m90 144 c10 -16 10 -79 0 -95 -5 -7 -22 -14
-38 -15 -28 -2 -29 -1 -32 52 -4 72 2 85 35 76 16 -4 31 -12 35 -18z m2 -151
c-3 -9 -12 -12 -22 -9 -15 6 -9 11 25 22 1 1 0 -5 -3 -13z"/>
<path d="M2294 449 c-12 -20 -101 -358 -96 -364 3 -3 18 -5 33 -5 23 0 29 6
41 43 12 40 15 42 52 42 40 0 43 -3 65 -57 7 -20 18 -28 35 -28 14 0 27 4 31
9 9 15 -85 345 -103 359 -20 15 -49 16 -58 1z m40 -38 c3 -5 -1 -14 -8 -20
-12 -10 -13 -8 -9 8 6 23 9 25 17 12z m10 -136 c8 -30 1 -45 -20 -45 -9 0 -14
11 -14 35 0 42 24 49 34 10z m56 -75 c0 -3 -31 -4 -70 -2 -51 3 -70 0 -70 -9
0 -7 -2 -10 -5 -7 -3 3 -3 11 0 19 4 10 21 13 65 11 45 -3 60 0 60 10 0 10 3
9 10 -2 5 -8 10 -17 10 -20z"/>
<path d="M2673 446 c-17 -8 -36 -23 -42 -35 -14 -25 -14 -256 -1 -282 24 -44
110 -62 179 -38 37 13 61 53 61 104 0 33 -2 35 -35 35 -30 0 -35 -3 -35 -24 0
-48 -54 -72 -94 -43 -12 9 -19 32 -23 74 -8 85 2 131 32 145 34 15 73 2 81
-27 5 -21 12 -25 41 -25 35 0 36 0 30 37 -9 56 -45 86 -109 90 -32 2 -66 -2
-85 -11z m17 -30 c0 -2 -8 -10 -17 -17 -16 -13 -17 -12 -4 4 13 16 21 21 21
13z m134 -23 c10 -25 3 -23 -17 3 -13 18 -14 22 -3 18 8 -3 17 -13 20 -21z
m-143 -260 c13 -16 12 -17 -3 -4 -10 7 -18 15 -18 17 0 8 8 3 21 -13z m134 -3
c-3 -5 -12 -10 -18 -10 -7 0 -6 4 3 10 19 12 23 12 15 0z"/>
<path d="M3054 446 c-3 -7 -3 -90 -2 -186 l3 -175 92 -3 c91 -3 93 -2 99 22 9
38 -2 46 -67 46 l-59 0 0 45 0 45 45 0 c33 0 47 5 52 16 11 29 -11 49 -53 49
-39 0 -39 0 -42 42 l-3 42 63 3 c57 3 63 5 66 26 4 27 -3 30 -106 35 -56 2
-85 0 -88 -7z m79 -23 c-7 -2 -21 -2 -30 0 -10 3 -4 5 12 5 17 0 24 -2 18 -5z
m60 0 c-7 -2 -19 -2 -25 0 -7 3 -2 5 12 5 14 0 19 -2 13 -5z"/>
<path d="M3425 447 c-3 -7 -4 -91 -3 -187 l3 -175 30 0 c29 0 30 2 33 48 4 63
28 63 62 -1 17 -33 32 -48 49 -50 39 -6 44 11 20 61 l-22 45 21 27 c42 53 24
214 -25 229 -10 3 -51 8 -91 11 -54 4 -74 2 -77 -8z m119 -67 c23 -8 26 -15
26 -60 0 -44 -3 -52 -24 -62 -43 -19 -56 -5 -56 60 0 75 5 81 54 62z m-73
-163 c-1 -12 -15 -9 -19 4 -3 6 1 10 8 8 6 -3 11 -8 11 -12z m92 -8 c-4 -15
-8 -17 -14 -8 -6 11 4 28 18 29 0 0 -1 -9 -4 -21z"/>
<path d="M3798 443 c-19 -24 1 -52 40 -55 l37 -3 5 -150 5 -150 30 0 30 0 5
150 5 150 40 5 c32 4 41 9 43 28 4 29 -3 30 -126 34 -72 2 -107 -1 -114 -9z
m75 -20 c-7 -2 -21 -2 -30 0 -10 3 -4 5 12 5 17 0 24 -2 18 -5z m110 0 c-7 -2
-21 -2 -30 0 -10 3 -4 5 12 5 17 0 24 -2 18 -5z m-66 -230 c-1 -43 -3 -8 -3
77 0 85 2 120 3 78 2 -43 2 -113 0 -155z"/>
<path d="M4273 448 c-17 -22 -103 -352 -94 -361 18 -18 56 -2 66 28 16 48 24
55 65 55 36 0 39 -2 53 -42 12 -38 17 -43 43 -43 21 0 28 4 26 15 -24 108 -87
338 -94 348 -6 6 -21 12 -33 12 -12 0 -27 -6 -32 -12z m43 -61 c-2 -7 -5 -3
-5 8 -1 17 -3 17 -11 5 -8 -13 -10 -13 -10 1 0 9 3 19 7 23 9 9 26 -22 19 -37z
m10 -143 c-7 -18 -35 -18 -42 -1 -3 8 0 27 6 43 l12 29 15 -28 c8 -16 12 -35
9 -43z m52 -44 c3 -9 -1 -11 -12 -7 -10 4 -45 8 -79 9 l-62 1 65 7 c79 8 83 7
88 -10z"/>
</g>
</svg>
