<?xml version="1.0" standalone="no"?>
<!DOCTYPE svg PUBLIC "-//W3C//DTD SVG 20010904//EN"
 "http://www.w3.org/TR/2001/REC-SVG-20010904/DTD/svg10.dtd">
<svg version="1.0" xmlns="http://www.w3.org/2000/svg"
 width="746.000000pt" height="175.000000pt" viewBox="0 0 746.000000 175.000000"
 preserveAspectRatio="xMidYMid meet">

<g transform="translate(0.000000,175.000000) scale(0.100000,-0.100000)"
fill="#000000" stroke="none">
<path d="M543 1633 c-10 -3 -13 -47 -13 -169 l0 -165 28 3 c25 3 27 7 30 56
l3 52 237 1 c130 0 263 2 295 4 l57 3 0 -439 0 -439 -295 0 -294 0 -3 108 c-3
107 -3 107 -28 107 l-25 0 -3 -229 c-2 -177 1 -231 10 -238 22 -13 672 -10
686 4 9 9 12 172 12 674 0 594 -2 662 -16 668 -19 7 -663 7 -681 -1z m637
-105 l0 -53 -295 0 -295 0 0 53 0 52 295 0 295 0 0 -52z m0 -1118 l0 -70 -295
0 -295 0 0 70 0 70 295 0 295 0 0 -70z"/>
<path d="M760 1525 c0 -13 21 -15 125 -15 104 0 125 2 125 15 0 13 -21 15
-125 15 -104 0 -125 -2 -125 -15z"/>
<path d="M852 454 c-24 -17 -29 -51 -9 -76 29 -39 97 -15 97 33 0 21 -33 59
-53 59 -7 0 -23 -7 -35 -16z m56 -38 c4 -21 -14 -37 -35 -29 -14 5 -18 35 -6
47 12 12 38 1 41 -18z"/>
<path d="M1672 1425 c-23 -10 -39 -28 -55 -62 -21 -46 -22 -63 -25 -352 -5
-460 13 -521 156 -521 99 0 142 59 156 218 l6 72 -54 0 -53 0 -5 -75 c-5 -81
-18 -105 -54 -105 -46 0 -49 21 -49 370 0 295 2 328 18 353 37 57 76 25 86
-73 l6 -55 50 0 49 0 -3 50 c-5 81 -31 146 -70 172 -40 27 -108 30 -159 8z"/>
<path d="M2180 1423 c-84 -43 -111 -214 -92 -594 11 -226 24 -280 77 -315 34
-22 122 -30 169 -14 91 30 109 116 104 505 -4 258 -6 295 -24 339 -26 67 -59
89 -137 94 -46 2 -71 -2 -97 -15z m127 -100 c16 -25 18 -58 18 -354 0 -307 -1
-328 -19 -348 -11 -12 -31 -21 -48 -21 -53 0 -58 30 -58 374 0 298 5 350 33
368 25 16 57 8 74 -19z"/>
<path d="M4545 1425 c-22 -8 -41 -15 -42 -15 -2 0 -12 -18 -23 -40 -32 -63
-39 -159 -40 -527 l0 -343 55 0 54 0 3 133 3 132 60 0 60 0 3 -132 3 -133 54
0 55 0 0 298 c0 461 -14 566 -80 614 -35 25 -115 32 -165 13z m111 -105 c7
-15 14 -114 17 -242 l6 -218 -66 0 -66 0 5 219 c4 186 7 223 22 246 22 34 66
32 82 -5z"/>
<path d="M5084 1424 c-39 -19 -60 -55 -73 -128 -13 -73 -15 -569 -1 -648 20
-124 63 -164 167 -156 89 8 123 60 139 221 l6 67 -56 0 -56 0 0 -62 c0 -35 -6
-74 -13 -88 -18 -36 -52 -38 -74 -4 -16 26 -18 56 -18 349 0 290 2 323 18 348
19 29 48 35 66 13 7 -8 15 -43 19 -78 l7 -63 48 -1 c26 -1 49 1 51 5 8 13 -14
142 -29 171 -33 64 -129 90 -201 54z"/>
<path d="M7113 1430 c-38 -12 -78 -58 -94 -108 -8 -25 -13 -168 -16 -429 l-5
-393 56 0 55 0 3 133 3 132 60 0 60 0 3 -132 3 -133 54 0 55 0 0 313 c-1 466
-12 548 -80 599 -30 22 -112 31 -157 18z m103 -110 c7 -15 14 -116 18 -242 l7
-218 -66 0 -65 0 0 158 c1 179 12 295 30 318 19 22 63 14 76 -16z"/>
<path d="M2660 965 l0 -465 55 0 55 0 1 228 1 227 28 -160 c16 -88 34 -190 40
-227 12 -68 12 -68 45 -68 l32 0 16 88 c9 48 26 146 38 217 12 72 26 134 31
139 4 6 8 -92 8 -217 l0 -227 55 0 55 0 0 466 0 465 -52 -3 -52 -3 -61 -288
c-33 -158 -64 -286 -70 -284 -5 2 -36 132 -69 290 l-60 287 -48 0 -48 0 0
-465z"/>
<path d="M3340 965 l0 -465 55 0 55 0 0 200 0 200 69 0 c79 0 113 20 138 78
36 87 33 289 -6 378 -27 60 -64 74 -200 74 l-111 0 0 -465z m214 360 c8 -8 18
-36 22 -61 10 -67 -1 -240 -16 -259 -8 -10 -30 -15 -61 -15 l-49 0 0 175 0
175 44 0 c26 0 51 -6 60 -15z"/>
<path d="M3870 965 l0 -465 60 0 60 0 0 220 0 220 40 0 c67 0 77 -35 96 -342
l6 -98 55 0 55 0 -7 83 c-17 208 -36 352 -50 373 -13 20 -12 27 7 71 18 40 22
67 22 163 1 100 -2 121 -22 162 -32 64 -69 78 -212 78 l-110 0 0 -465z m224
353 c12 -17 16 -48 16 -128 0 -135 -9 -154 -73 -158 l-47 -3 0 155 0 156 44 0
c35 0 48 -5 60 -22z"/>
<path d="M5510 965 l0 -465 130 0 130 0 0 55 0 55 -75 0 -75 0 0 165 0 165 65
0 65 0 0 45 0 45 -65 0 -65 0 0 155 0 155 75 0 75 0 0 45 0 45 -130 0 -130 0
0 -465z"/>
<path d="M5960 966 l0 -466 55 0 55 0 0 220 0 220 45 0 c39 0 46 -3 60 -30 14
-27 30 -172 38 -350 l2 -55 57 -3 56 -3 -4 38 c-2 21 -11 112 -19 203 -14 161
-28 230 -46 230 -5 0 1 19 14 43 18 35 23 61 25 163 4 105 1 128 -16 167 -32
71 -56 81 -199 86 l-123 3 0 -466z m220 358 c16 -18 25 -154 16 -218 -9 -60
-27 -76 -82 -76 l-44 0 0 155 0 155 49 0 c32 0 53 -5 61 -16z"/>
<path d="M6480 1380 l0 -49 58 -3 57 -3 3 -412 2 -413 55 0 55 0 0 415 0 415
60 0 60 0 0 50 0 50 -175 0 -175 0 0 -50z"/>
<path d="M40 1375 c-20 -24 5 -45 54 -45 l41 0 69 -259 c38 -143 74 -265 79
-270 13 -13 635 -15 655 -2 8 4 41 95 74 201 50 161 58 195 46 205 -8 9 -139
27 -368 53 -334 37 -380 38 -380 13 1 -27 35 -34 348 -69 182 -21 334 -40 336
-43 3 -3 -16 -72 -42 -155 l-48 -149 -289 -3 -290 -2 -70 261 c-50 187 -74
263 -86 270 -29 15 -115 11 -129 -6z"/>
<path d="M329 751 c-51 -41 -16 -134 50 -134 59 0 94 59 67 112 -24 45 -76 55
-117 22z m89 -23 c26 -26 0 -88 -36 -88 -40 0 -67 61 -40 88 15 15 61 15 76 0z"/>
<path d="M729 751 c-16 -13 -23 -29 -23 -54 0 -59 49 -96 101 -76 54 20 69 76
32 123 -25 32 -75 35 -110 7z m95 -32 c32 -47 -32 -102 -74 -64 -22 20 -25 37
-10 66 15 26 64 25 84 -2z"/>
</g>
</svg>
