<?xml version="1.0" standalone="no"?>
<!DOCTYPE svg PUBLIC "-//W3C//DTD SVG 20010904//EN"
 "http://www.w3.org/TR/2001/REC-SVG-20010904/DTD/svg10.dtd">
<svg version="1.0" xmlns="http://www.w3.org/2000/svg"
 width="409.000000pt" height="254.000000pt" viewBox="0 0 409.000000 254.000000"
 preserveAspectRatio="xMidYMid meet">

<g transform="translate(0.000000,254.000000) scale(0.100000,-0.100000)"
fill="#000000" stroke="none">
<path d="M1721 2451 c-13 -24 -12 -319 1 -344 6 -11 18 -17 31 -15 20 3 22 10
25 66 l3 62 334 0 335 0 0 -490 0 -490 -335 0 -335 0 0 120 0 120 -29 0 c-21
0 -30 -6 -35 -22 -3 -13 -6 -125 -6 -249 0 -164 3 -230 13 -242 11 -16 44 -17
397 -15 l385 3 0 755 0 755 -387 3 c-374 2 -388 2 -397 -17z m729 -106 l0 -55
-335 0 -335 0 0 55 0 55 335 0 335 0 0 -55z m0 -1250 l0 -75 -335 0 -335 0 0
75 0 75 335 0 335 0 0 -75z"/>
<path d="M1977 2354 c-19 -20 5 -24 139 -24 112 0 145 3 142 13 -5 13 -268 24
-281 11z"/>
<path d="M2092 1149 c-12 -5 -27 -20 -32 -34 -29 -77 78 -121 110 -45 21 52
-25 98 -78 79z m46 -56 c-4 -31 -17 -38 -41 -20 -25 17 -12 47 20 47 21 0 24
-4 21 -27z"/>
<path d="M1169 2174 c-22 -27 1 -49 58 -52 l50 -3 68 -252 c37 -139 74 -273
82 -299 l14 -48 369 0 c206 0 371 4 374 9 12 18 136 423 136 441 0 12 -9 22
-22 25 -13 3 -198 25 -412 48 -331 37 -390 41 -402 30 -23 -24 -1 -49 48 -56
24 -3 192 -22 373 -43 182 -20 332 -38 334 -40 2 -2 -20 -80 -49 -174 l-53
-170 -323 0 -323 0 -15 53 c-9 28 -45 160 -80 291 -36 131 -71 243 -78 247
-24 16 -134 10 -149 -7z"/>
<path d="M1512 1490 c-13 -6 -29 -26 -38 -45 -35 -86 57 -161 129 -105 34 27
43 70 22 110 -23 44 -65 59 -113 40z m75 -44 c24 -21 26 -27 18 -52 -6 -18
-21 -33 -39 -39 -25 -8 -31 -6 -52 18 -31 36 -30 51 2 76 33 26 37 26 71 -3z"/>
<path d="M1962 1490 c-28 -12 -55 -71 -46 -105 3 -14 18 -34 31 -45 74 -58
171 26 128 110 -23 44 -65 59 -113 40z m73 -45 c30 -29 31 -49 5 -75 -27 -27
-55 -25 -79 6 -27 35 -26 48 5 73 34 27 40 26 69 -4z"/>
<path d="M160 731 c-16 -4 -33 -21 -45 -46 -18 -37 -20 -60 -20 -270 0 -210 2
-233 20 -270 23 -46 65 -64 118 -49 39 11 63 55 72 137 l7 57 -34 0 c-35 0
-35 0 -44 -57 -8 -53 -11 -58 -34 -58 -21 0 -26 6 -33 45 -4 25 -6 131 -5 237
3 165 5 195 20 209 24 24 44 5 53 -51 6 -44 7 -45 42 -45 l35 0 -6 38 c-13 73
-27 102 -56 117 -31 16 -50 17 -90 6z"/>
<path d="M493 726 c-54 -25 -65 -86 -61 -334 3 -176 6 -213 21 -244 22 -43 69
-64 121 -54 78 15 96 76 96 327 0 189 -10 256 -45 289 -29 27 -90 35 -132 16z
m87 -65 c15 -29 14 -463 -2 -479 -22 -22 -57 -14 -65 16 -14 48 -10 434 5 460
16 27 48 29 62 3z"/>
<path d="M2104 733 c-40 -8 -65 -47 -74 -114 -5 -35 -10 -166 -10 -291 l0
-228 40 0 40 0 0 90 0 90 40 0 40 0 0 -90 0 -90 41 0 41 0 -4 268 c-5 273 -11
317 -49 349 -17 13 -75 23 -105 16z m63 -84 c8 -16 13 -73 13 -166 l0 -143
-41 0 -40 0 3 160 c2 130 6 163 18 170 21 13 33 8 47 -21z"/>
<path d="M2460 727 c-48 -24 -55 -55 -58 -279 -5 -283 9 -340 85 -354 74 -14
118 35 124 142 l3 49 -37 3 -37 3 0 -45 c0 -24 -3 -51 -6 -60 -10 -25 -43 -19
-54 10 -11 28 -14 392 -4 442 13 65 64 46 64 -24 0 -44 0 -44 36 -44 l37 0 -6
54 c-6 65 -22 92 -61 106 -38 13 -56 12 -86 -3z"/>
<path d="M3831 732 c-66 -20 -79 -92 -80 -434 l-1 -198 40 0 40 0 0 90 0 90
40 0 40 0 0 -90 0 -90 40 0 40 0 0 239 c0 261 -9 334 -43 368 -24 24 -79 35
-116 25z m63 -68 c13 -13 16 -43 16 -170 l0 -154 -41 0 -40 0 3 153 c2 112 7
159 17 170 17 21 25 21 45 1z"/>
<path d="M810 415 l0 -315 40 0 40 0 1 148 c0 81 3 142 5 135 3 -7 15 -72 27
-145 20 -120 25 -133 44 -136 26 -4 25 -5 55 168 l23 135 3 -153 3 -152 39 0
40 0 0 315 0 315 -34 0 c-41 0 -34 18 -82 -212 -21 -98 -40 -178 -44 -178 -4
0 -22 71 -39 158 -51 245 -46 232 -86 232 l-35 0 0 -315z"/>
<path d="M1280 415 l0 -315 35 0 35 0 0 135 0 135 44 0 c80 0 115 54 116 178
0 76 -18 139 -48 162 -20 16 -40 20 -103 20 l-79 0 0 -315z m150 229 c6 -14
10 -56 10 -94 0 -97 -11 -120 -55 -120 l-35 0 0 120 0 120 35 0 c29 0 37 -5
45 -26z"/>
<path d="M1640 415 l0 -315 35 0 35 0 0 151 0 150 32 -3 c46 -4 54 -29 63
-174 l7 -124 39 0 39 0 -5 38 c-3 20 -9 86 -15 146 -5 60 -15 115 -21 122 -8
10 -7 24 5 54 19 47 21 162 5 209 -16 45 -54 61 -144 61 l-75 0 0 -315z m148
243 c15 -15 16 -152 2 -179 -8 -13 -21 -19 -45 -19 l-35 0 0 105 0 105 33 0
c18 0 38 -5 45 -12z"/>
<path d="M2740 415 l0 -315 90 0 90 0 0 41 0 41 -50 -4 -50 -3 0 113 0 112 45
0 c43 0 45 1 45 30 0 29 -2 30 -45 30 l-45 0 0 105 0 105 50 0 c49 0 50 1 50
30 l0 30 -90 0 -90 0 0 -315z"/>
<path d="M3050 415 l0 -315 40 0 40 0 0 150 0 150 29 0 c39 0 48 -29 57 -182
l7 -118 38 0 39 0 -6 58 c-16 170 -26 237 -35 254 -7 14 -7 24 2 34 18 22 24
173 9 218 -16 50 -51 66 -145 66 l-75 0 0 -315z m148 243 c15 -15 16 -152 2
-179 -7 -12 -21 -19 -40 -19 l-30 0 0 105 0 105 28 0 c15 0 33 -5 40 -12z"/>
<path d="M3400 695 c0 -34 1 -35 40 -35 l40 0 0 -280 0 -280 40 0 40 0 0 280
0 280 41 0 c39 0 40 1 37 33 l-3 32 -117 3 -118 3 0 -36z"/>
</g>
</svg>
